<svg xmlns="http://www.w3.org/2000/svg" viewBox="0 0 500 500"><g id="freepik--background-complete--inject-101"><rect x="416.78" y="398.49" width="33.12" height="0.25" style="fill:#ebebeb"></rect><rect x="322.53" y="401.21" width="8.69" height="0.25" style="fill:#ebebeb"></rect><rect x="396.59" y="389.21" width="19.19" height="0.25" style="fill:#ebebeb"></rect><rect x="52.46" y="390.89" width="43.19" height="0.25" style="fill:#ebebeb"></rect><rect x="104.56" y="390.89" width="6.33" height="0.25" style="fill:#ebebeb"></rect><rect x="131.47" y="395.11" width="93.68" height="0.25" style="fill:#ebebeb"></rect><path d="M238.4,337.8H45.3a5.71,5.71,0,0,1-5.71-5.71V60.66A5.71,5.71,0,0,1,45.3,55H238.4a5.71,5.71,0,0,1,5.71,5.71V332.09A5.71,5.71,0,0,1,238.4,337.8ZM45.3,55.2a5.47,5.47,0,0,0-5.46,5.46V332.09a5.47,5.47,0,0,0,5.46,5.46H238.4a5.47,5.47,0,0,0,5.46-5.46V60.66a5.47,5.47,0,0,0-5.46-5.46Z" style="fill:#ebebeb"></path><path d="M454.7,337.8H261.6a5.71,5.71,0,0,1-5.71-5.71V60.66A5.71,5.71,0,0,1,261.6,55H454.7a5.71,5.71,0,0,1,5.71,5.71V332.09A5.71,5.71,0,0,1,454.7,337.8ZM261.6,55.2a5.47,5.47,0,0,0-5.46,5.46V332.09a5.47,5.47,0,0,0,5.46,5.46H454.7a5.47,5.47,0,0,0,5.46-5.46V60.66a5.47,5.47,0,0,0-5.46-5.46Z" style="fill:#ebebeb"></path><rect y="382.4" width="500" height="0.25" style="fill:#ebebeb"></rect><polygon points="213.18 382.02 261.73 382.02 261.73 162.03 213.18 181.76 213.18 382.02" style="fill:#f0f0f0"></polygon><rect x="245.85" y="185.22" width="13.27" height="13.27" transform="translate(504.96 383.7) rotate(180)" style="fill:#fafafa"></rect><rect x="230.82" y="185.22" width="13.27" height="13.27" transform="translate(474.91 383.7) rotate(180)" style="fill:#f0f0f0"></rect><rect x="215.79" y="185.22" width="13.27" height="13.27" transform="translate(444.86 383.7) rotate(180)" style="fill:#fafafa"></rect><rect x="245.85" y="200.04" width="13.27" height="13.27" transform="translate(504.96 413.35) rotate(180)" style="fill:#fafafa"></rect><rect x="230.82" y="200.04" width="13.27" height="13.27" transform="translate(474.91 413.35) rotate(180)" style="fill:#fafafa"></rect><rect x="215.79" y="200.04" width="13.27" height="13.27" transform="translate(444.86 413.35) rotate(180)" style="fill:#fafafa"></rect><rect x="245.85" y="214.86" width="13.27" height="13.27" transform="translate(504.96 442.99) rotate(180)" style="fill:#fafafa"></rect><rect x="230.82" y="214.86" width="13.27" height="13.27" transform="translate(474.91 442.99) rotate(180)" style="fill:#f0f0f0"></rect><rect x="215.79" y="214.86" width="13.27" height="13.27" transform="translate(444.86 442.99) rotate(180)" style="fill:#fafafa"></rect><rect x="245.85" y="229.68" width="13.27" height="13.27" transform="translate(504.96 472.63) rotate(180)" style="fill:#f0f0f0"></rect><rect x="230.82" y="229.68" width="13.27" height="13.27" transform="translate(474.91 472.63) rotate(180)" style="fill:#fafafa"></rect><rect x="215.79" y="229.68" width="13.27" height="13.27" transform="translate(444.86 472.63) rotate(180)" style="fill:#fafafa"></rect><rect x="245.85" y="244.5" width="13.27" height="13.27" transform="translate(504.96 502.27) rotate(180)" style="fill:#fafafa"></rect><rect x="230.82" y="244.5" width="13.27" height="13.27" transform="translate(474.91 502.27) rotate(180)" style="fill:#fafafa"></rect><rect x="215.79" y="244.5" width="13.27" height="13.27" transform="translate(444.86 502.27) rotate(180)" style="fill:#f0f0f0"></rect><rect x="245.85" y="259.32" width="13.27" height="13.27" transform="translate(504.96 531.91) rotate(180)" style="fill:#fafafa"></rect><rect x="230.82" y="259.32" width="13.27" height="13.27" transform="translate(474.91 531.91) rotate(180)" style="fill:#f0f0f0"></rect><rect x="215.79" y="259.32" width="13.27" height="13.27" transform="translate(444.86 531.91) rotate(180)" style="fill:#fafafa"></rect><rect x="245.85" y="274.14" width="13.27" height="13.27" transform="translate(504.96 561.55) rotate(180)" style="fill:#f0f0f0"></rect><rect x="230.82" y="274.14" width="13.27" height="13.27" transform="translate(474.91 561.55) rotate(180)" style="fill:#f0f0f0"></rect><rect x="215.79" y="274.14" width="13.27" height="13.27" transform="translate(444.86 561.55) rotate(180)" style="fill:#fafafa"></rect><rect x="245.85" y="288.96" width="13.27" height="13.27" transform="translate(504.96 591.19) rotate(180)" style="fill:#fafafa"></rect><rect x="230.82" y="288.96" width="13.27" height="13.27" transform="translate(474.91 591.19) rotate(180)" style="fill:#f0f0f0"></rect><rect x="215.79" y="288.96" width="13.27" height="13.27" transform="translate(444.86 591.19) rotate(180)" style="fill:#fafafa"></rect><rect x="245.85" y="303.78" width="13.27" height="13.27" transform="translate(504.96 620.84) rotate(180)" style="fill:#fafafa"></rect><rect x="230.82" y="303.78" width="13.27" height="13.27" transform="translate(474.91 620.84) rotate(180)" style="fill:#fafafa"></rect><rect x="215.79" y="303.78" width="13.27" height="13.27" transform="translate(444.86 620.84) rotate(180)" style="fill:#fafafa"></rect><rect x="245.85" y="318.6" width="13.27" height="13.27" transform="translate(504.96 650.48) rotate(180)" style="fill:#f0f0f0"></rect><rect x="230.82" y="318.6" width="13.27" height="13.27" transform="translate(474.91 650.48) rotate(180)" style="fill:#fafafa"></rect><rect x="215.79" y="318.6" width="13.27" height="13.27" transform="translate(444.86 650.48) rotate(180)" style="fill:#f0f0f0"></rect><rect x="245.85" y="333.42" width="13.27" height="13.27" transform="translate(504.96 680.12) rotate(180)" style="fill:#fafafa"></rect><rect x="230.82" y="333.42" width="13.27" height="13.27" transform="translate(474.91 680.12) rotate(180)" style="fill:#f0f0f0"></rect><rect x="215.79" y="333.42" width="13.27" height="13.27" transform="translate(444.86 680.12) rotate(180)" style="fill:#fafafa"></rect><rect x="245.85" y="348.25" width="13.27" height="13.27" transform="translate(504.96 709.76) rotate(180)" style="fill:#f0f0f0"></rect><rect x="230.82" y="348.25" width="13.27" height="13.27" transform="translate(474.91 709.76) rotate(180)" style="fill:#fafafa"></rect><rect x="215.79" y="348.25" width="13.27" height="13.27" transform="translate(444.86 709.76) rotate(180)" style="fill:#fafafa"></rect><polygon points="383.86 382.02 423.16 382.02 423.16 203.94 383.86 219.91 383.86 382.02" style="fill:#f0f0f0"></polygon><rect x="410.3" y="222.71" width="10.74" height="10.74" transform="translate(831.34 456.16) rotate(180)" style="fill:#fafafa"></rect><rect x="398.14" y="222.71" width="10.74" height="10.74" transform="translate(807.02 456.16) rotate(180)" style="fill:#f0f0f0"></rect><rect x="385.97" y="222.71" width="10.74" height="10.74" transform="translate(782.69 456.16) rotate(180)" style="fill:#fafafa"></rect><rect x="410.3" y="234.71" width="10.74" height="10.74" transform="translate(831.34 480.16) rotate(180)" style="fill:#fafafa"></rect><rect x="398.14" y="234.71" width="10.74" height="10.74" transform="translate(807.02 480.16) rotate(180)" style="fill:#fafafa"></rect><rect x="385.97" y="234.71" width="10.74" height="10.74" transform="translate(782.69 480.16) rotate(180)" style="fill:#fafafa"></rect><rect x="410.3" y="246.7" width="10.74" height="10.74" transform="translate(831.34 504.15) rotate(180)" style="fill:#fafafa"></rect><rect x="398.14" y="246.7" width="10.74" height="10.74" transform="translate(807.02 504.15) rotate(180)" style="fill:#f0f0f0"></rect><rect x="385.97" y="246.7" width="10.74" height="10.74" transform="translate(782.69 504.15) rotate(180)" style="fill:#fafafa"></rect><rect x="410.3" y="258.7" width="10.74" height="10.74" transform="translate(831.34 528.15) rotate(180)" style="fill:#f0f0f0"></rect><rect x="398.14" y="258.7" width="10.74" height="10.74" transform="translate(807.02 528.15) rotate(180)" style="fill:#fafafa"></rect><rect x="385.97" y="258.7" width="10.74" height="10.74" transform="translate(782.69 528.15) rotate(180)" style="fill:#fafafa"></rect><rect x="410.3" y="270.7" width="10.74" height="10.74" transform="translate(831.34 552.14) rotate(180)" style="fill:#fafafa"></rect><rect x="398.14" y="270.7" width="10.74" height="10.74" transform="translate(807.02 552.14) rotate(180)" style="fill:#fafafa"></rect><rect x="385.97" y="270.7" width="10.74" height="10.74" transform="translate(782.69 552.14) rotate(180)" style="fill:#f0f0f0"></rect><rect x="410.3" y="282.7" width="10.74" height="10.74" transform="translate(831.34 576.13) rotate(180)" style="fill:#fafafa"></rect><rect x="398.14" y="282.7" width="10.74" height="10.74" transform="translate(807.02 576.13) rotate(180)" style="fill:#f0f0f0"></rect><rect x="385.97" y="282.7" width="10.74" height="10.74" transform="translate(782.69 576.13) rotate(180)" style="fill:#fafafa"></rect><rect x="410.3" y="294.69" width="10.74" height="10.74" transform="translate(831.34 600.13) rotate(180)" style="fill:#f0f0f0"></rect><rect x="398.14" y="294.69" width="10.74" height="10.74" transform="translate(807.02 600.13) rotate(180)" style="fill:#f0f0f0"></rect><rect x="385.97" y="294.69" width="10.74" height="10.74" transform="translate(782.69 600.13) rotate(180)" style="fill:#fafafa"></rect><rect x="410.3" y="306.69" width="10.74" height="10.74" transform="translate(831.34 624.12) rotate(180)" style="fill:#fafafa"></rect><rect x="398.14" y="306.69" width="10.74" height="10.74" transform="translate(807.02 624.12) rotate(180)" style="fill:#f0f0f0"></rect><rect x="385.97" y="306.69" width="10.74" height="10.74" transform="translate(782.69 624.12) rotate(180)" style="fill:#fafafa"></rect><rect x="410.3" y="318.69" width="10.74" height="10.74" transform="translate(831.34 648.12) rotate(180)" style="fill:#fafafa"></rect><rect x="398.14" y="318.69" width="10.74" height="10.74" transform="translate(807.02 648.12) rotate(180)" style="fill:#fafafa"></rect><rect x="385.97" y="318.69" width="10.74" height="10.74" transform="translate(782.69 648.12) rotate(180)" style="fill:#fafafa"></rect><rect x="410.3" y="330.69" width="10.74" height="10.74" transform="translate(831.34 672.11) rotate(180)" style="fill:#f0f0f0"></rect><rect x="398.14" y="330.69" width="10.74" height="10.74" transform="translate(807.02 672.11) rotate(180)" style="fill:#fafafa"></rect><rect x="385.97" y="330.69" width="10.74" height="10.74" transform="translate(782.69 672.11) rotate(180)" style="fill:#f0f0f0"></rect><rect x="410.3" y="342.68" width="10.74" height="10.74" transform="translate(831.34 696.11) rotate(180)" style="fill:#fafafa"></rect><rect x="398.14" y="342.68" width="10.74" height="10.74" transform="translate(807.02 696.11) rotate(180)" style="fill:#f0f0f0"></rect><rect x="385.97" y="342.68" width="10.74" height="10.74" transform="translate(782.69 696.11) rotate(180)" style="fill:#fafafa"></rect><rect x="410.3" y="354.68" width="10.74" height="10.74" transform="translate(831.34 720.1) rotate(180)" style="fill:#f0f0f0"></rect><rect x="398.14" y="354.68" width="10.74" height="10.74" transform="translate(807.02 720.1) rotate(180)" style="fill:#fafafa"></rect><rect x="385.97" y="354.68" width="10.74" height="10.74" transform="translate(782.69 720.1) rotate(180)" style="fill:#fafafa"></rect><polygon points="375.23 382.02 332.42 382.02 332.42 188.06 375.23 205.46 375.23 382.02" style="fill:#f0f0f0"></polygon><rect x="346.09" y="203.19" width="6.45" height="6.45" style="fill:#fafafa"></rect><rect x="337.08" y="212.93" width="6.45" height="6.45" style="fill:#fafafa"></rect><rect x="337.08" y="222.66" width="6.45" height="6.45" style="fill:#fafafa"></rect><rect x="346.09" y="222.66" width="6.45" height="6.45" style="fill:#fafafa"></rect><rect x="355.1" y="222.66" width="6.45" height="6.45" style="fill:#fafafa"></rect><rect x="337.08" y="242.12" width="6.45" height="6.45" style="fill:#fafafa"></rect><rect x="355.1" y="242.12" width="6.45" height="6.45" style="fill:#fafafa"></rect><rect x="346.09" y="251.86" width="6.45" height="6.45" style="fill:#fafafa"></rect><rect x="337.08" y="261.59" width="6.45" height="6.45" style="fill:#fafafa"></rect><rect x="355.1" y="261.59" width="6.45" height="6.45" style="fill:#fafafa"></rect><rect x="364.12" y="261.59" width="6.45" height="6.45" style="fill:#fafafa"></rect><rect x="346.09" y="271.32" width="6.45" height="6.45" style="fill:#fafafa"></rect><rect x="337.08" y="281.05" width="6.45" height="6.45" style="fill:#fafafa"></rect><rect x="346.09" y="281.05" width="6.45" height="6.45" style="fill:#fafafa"></rect><rect x="364.12" y="281.05" width="6.45" height="6.45" style="fill:#fafafa"></rect><rect x="337.08" y="290.59" width="6.45" height="6.45" transform="translate(4.25 -4.85) rotate(0.82)" style="fill:#fafafa"></rect><rect x="355.1" y="290.85" width="6.45" height="6.45" transform="translate(4.25 -5.1) rotate(0.82)" style="fill:#fafafa"></rect><rect x="364.12" y="290.98" width="6.45" height="6.45" transform="translate(4.25 -5.23) rotate(0.82)" style="fill:#fafafa"></rect><rect x="346.09" y="300.52" width="6.45" height="6.45" style="fill:#fafafa"></rect><rect x="364.12" y="309.36" width="6.45" height="6.45" transform="translate(734.69 625.18) rotate(180)" style="fill:#fafafa"></rect><rect x="346.09" y="309.36" width="6.45" height="6.45" transform="translate(698.64 625.18) rotate(180)" style="fill:#fafafa"></rect><rect x="337.08" y="309.36" width="6.45" height="6.45" transform="translate(680.61 625.18) rotate(180)" style="fill:#fafafa"></rect><rect x="355.11" y="319.09" width="6.45" height="6.45" transform="translate(716.66 644.64) rotate(180)" style="fill:#fafafa"></rect><rect x="364.12" y="328.83" width="6.45" height="6.45" transform="translate(734.69 664.11) rotate(180)" style="fill:#fafafa"></rect><rect x="355.11" y="328.83" width="6.45" height="6.45" transform="translate(716.66 664.11) rotate(180)" style="fill:#fafafa"></rect><rect x="337.08" y="328.83" width="6.45" height="6.45" transform="translate(680.61 664.11) rotate(180)" style="fill:#fafafa"></rect><rect x="364.12" y="338.37" width="6.45" height="6.45" transform="translate(739.54 677.88) rotate(179.18)" style="fill:#fafafa"></rect><rect x="346.09" y="338.62" width="6.45" height="6.45" transform="translate(703.51 678.65) rotate(179.18)" style="fill:#fafafa"></rect><rect x="337.08" y="338.75" width="6.45" height="6.45" transform="translate(685.48 679.05) rotate(179.18)" style="fill:#fafafa"></rect><rect x="355.11" y="348.29" width="6.45" height="6.45" transform="translate(716.66 703.04) rotate(180)" style="fill:#fafafa"></rect><polygon points="319.34 167.57 319.34 158.46 300.92 158.46 300.92 167.57 270.36 167.57 270.36 382.02 323.79 382.02 323.79 167.57 319.34 167.57" style="fill:#ebebeb"></polygon><rect x="287.62" y="179.08" width="7.89" height="7.89" style="fill:#fafafa"></rect><rect x="298.64" y="179.08" width="7.89" height="7.89" style="fill:#fafafa"></rect><rect x="276.6" y="190.99" width="7.89" height="7.89" style="fill:#fafafa"></rect><rect x="287.62" y="190.99" width="7.89" height="7.89" style="fill:#fafafa"></rect><rect x="309.66" y="190.99" width="7.89" height="7.89" style="fill:#fafafa"></rect><rect x="276.6" y="202.89" width="7.89" height="7.89" style="fill:#fafafa"></rect><rect x="298.64" y="202.89" width="7.89" height="7.89" style="fill:#fafafa"></rect><rect x="309.66" y="202.89" width="7.89" height="7.89" style="fill:#fafafa"></rect><rect x="276.6" y="226.69" width="7.89" height="7.89" style="fill:#fafafa"></rect><rect x="298.64" y="226.69" width="7.89" height="7.89" style="fill:#fafafa"></rect><rect x="276.6" y="238.59" width="7.89" height="7.89" style="fill:#fafafa"></rect><rect x="287.62" y="238.59" width="7.89" height="7.89" style="fill:#fafafa"></rect><rect x="309.66" y="238.59" width="7.89" height="7.89" style="fill:#fafafa"></rect><rect x="276.6" y="298.02" width="7.89" height="7.89" style="fill:#fafafa"></rect><rect x="287.62" y="298.02" width="7.89" height="7.89" style="fill:#fafafa"></rect><rect x="309.66" y="298.02" width="7.89" height="7.89" style="fill:#fafafa"></rect><rect x="276.6" y="309.92" width="7.89" height="7.89" style="fill:#fafafa"></rect><rect x="298.64" y="309.92" width="7.89" height="7.89" style="fill:#fafafa"></rect><rect x="309.66" y="309.92" width="7.89" height="7.89" style="fill:#fafafa"></rect><rect x="276.6" y="333.73" width="7.89" height="7.89" style="fill:#fafafa"></rect><rect x="298.64" y="333.73" width="7.89" height="7.89" style="fill:#fafafa"></rect><rect x="276.6" y="345.63" width="7.89" height="7.89" style="fill:#fafafa"></rect><rect x="287.62" y="345.63" width="7.89" height="7.89" style="fill:#fafafa"></rect><rect x="309.66" y="345.63" width="7.89" height="7.89" style="fill:#fafafa"></rect><rect x="309.66" y="250.49" width="7.89" height="7.89" style="fill:#fafafa"></rect><rect x="276.6" y="262.4" width="7.89" height="7.89" style="fill:#fafafa"></rect><rect x="287.62" y="262.4" width="7.89" height="7.89" style="fill:#fafafa"></rect><rect x="298.64" y="274.38" width="7.89" height="7.89" transform="translate(4.02 -4.31) rotate(0.82)" style="fill:#fafafa"></rect><rect x="309.66" y="274.54" width="7.89" height="7.89" transform="translate(4.02 -4.46) rotate(0.82)" style="fill:#fafafa"></rect><rect x="276.6" y="286.2" width="7.89" height="7.89" style="fill:#fafafa"></rect><polygon points="142.22 382.02 189.25 382.02 189.25 183 142.22 188.03 142.22 382.02" style="fill:#f0f0f0"></polygon><rect x="173.86" y="191.39" width="12.85" height="12.85" transform="translate(360.58 395.63) rotate(180)" style="fill:#fafafa"></rect><rect x="159.31" y="191.39" width="12.85" height="12.85" transform="translate(331.47 395.63) rotate(180)" style="fill:#f0f0f0"></rect><rect x="144.75" y="191.39" width="12.85" height="12.85" transform="translate(302.36 395.63) rotate(180)" style="fill:#fafafa"></rect><rect x="173.86" y="205.74" width="12.85" height="12.85" transform="translate(360.58 424.34) rotate(180)" style="fill:#fafafa"></rect><rect x="159.31" y="205.74" width="12.85" height="12.85" transform="translate(331.47 424.34) rotate(180)" style="fill:#fafafa"></rect><rect x="144.75" y="205.74" width="12.85" height="12.85" transform="translate(302.36 424.34) rotate(180)" style="fill:#fafafa"></rect><rect x="173.86" y="220.1" width="12.85" height="12.85" transform="translate(360.58 453.05) rotate(180)" style="fill:#fafafa"></rect><rect x="159.31" y="220.1" width="12.85" height="12.85" transform="translate(331.47 453.05) rotate(180)" style="fill:#f0f0f0"></rect><rect x="144.75" y="220.1" width="12.85" height="12.85" transform="translate(302.36 453.05) rotate(180)" style="fill:#fafafa"></rect><rect x="173.86" y="234.45" width="12.85" height="12.85" transform="translate(360.58 481.76) rotate(180)" style="fill:#f0f0f0"></rect><rect x="159.31" y="234.45" width="12.85" height="12.85" transform="translate(331.47 481.76) rotate(180)" style="fill:#fafafa"></rect><rect x="144.75" y="234.45" width="12.85" height="12.85" transform="translate(302.36 481.76) rotate(180)" style="fill:#fafafa"></rect><rect x="173.86" y="248.81" width="12.85" height="12.85" transform="translate(360.58 510.48) rotate(180)" style="fill:#fafafa"></rect><rect x="159.31" y="248.81" width="12.85" height="12.85" transform="translate(331.47 510.48) rotate(180)" style="fill:#fafafa"></rect><rect x="144.75" y="248.81" width="12.85" height="12.85" transform="translate(302.36 510.48) rotate(180)" style="fill:#f0f0f0"></rect><rect x="173.86" y="263.17" width="12.85" height="12.85" transform="translate(360.58 539.19) rotate(180)" style="fill:#fafafa"></rect><rect x="159.31" y="263.17" width="12.85" height="12.85" transform="translate(331.47 539.19) rotate(180)" style="fill:#f0f0f0"></rect><rect x="144.75" y="263.17" width="12.85" height="12.85" transform="translate(302.36 539.19) rotate(180)" style="fill:#fafafa"></rect><rect x="173.86" y="277.52" width="12.85" height="12.85" transform="translate(360.58 567.9) rotate(180)" style="fill:#f0f0f0"></rect><rect x="159.31" y="277.52" width="12.85" height="12.85" transform="translate(331.47 567.9) rotate(180)" style="fill:#f0f0f0"></rect><rect x="144.75" y="277.52" width="12.85" height="12.85" transform="translate(302.36 567.9) rotate(180)" style="fill:#fafafa"></rect><rect x="173.86" y="291.88" width="12.85" height="12.85" transform="translate(360.58 596.61) rotate(180)" style="fill:#fafafa"></rect><rect x="159.31" y="291.88" width="12.85" height="12.85" transform="translate(331.47 596.61) rotate(180)" style="fill:#f0f0f0"></rect><rect x="144.75" y="291.88" width="12.85" height="12.85" transform="translate(302.36 596.61) rotate(180)" style="fill:#fafafa"></rect><rect x="173.86" y="306.24" width="12.85" height="12.85" transform="translate(360.58 625.32) rotate(180)" style="fill:#fafafa"></rect><rect x="159.31" y="306.24" width="12.85" height="12.85" transform="translate(331.47 625.32) rotate(180)" style="fill:#fafafa"></rect><rect x="144.75" y="306.24" width="12.85" height="12.85" transform="translate(302.36 625.32) rotate(180)" style="fill:#fafafa"></rect><rect x="173.86" y="320.59" width="12.85" height="12.85" transform="translate(360.58 654.04) rotate(180)" style="fill:#f0f0f0"></rect><rect x="159.31" y="320.59" width="12.85" height="12.85" transform="translate(331.47 654.04) rotate(180)" style="fill:#fafafa"></rect><rect x="144.75" y="320.59" width="12.85" height="12.85" transform="translate(302.36 654.04) rotate(180)" style="fill:#f0f0f0"></rect><rect x="173.86" y="334.95" width="12.85" height="12.85" transform="translate(360.58 682.75) rotate(180)" style="fill:#fafafa"></rect><rect x="159.31" y="334.95" width="12.85" height="12.85" transform="translate(331.47 682.75) rotate(180)" style="fill:#f0f0f0"></rect><rect x="144.75" y="334.95" width="12.85" height="12.85" transform="translate(302.36 682.75) rotate(180)" style="fill:#fafafa"></rect><rect x="173.86" y="349.3" width="12.85" height="12.85" transform="translate(360.58 711.46) rotate(180)" style="fill:#f0f0f0"></rect><rect x="159.31" y="349.3" width="12.85" height="12.85" transform="translate(331.47 711.46) rotate(180)" style="fill:#fafafa"></rect><rect x="144.75" y="349.3" width="12.85" height="12.85" transform="translate(302.36 711.46) rotate(180)" style="fill:#fafafa"></rect><polygon points="127.38 382.02 82.01 382.02 82.01 176.44 127.38 194.88 127.38 382.02" style="fill:#f0f0f0"></polygon><rect x="96.5" y="192.48" width="6.84" height="6.84" style="fill:#fafafa"></rect><rect x="86.95" y="202.8" width="6.84" height="6.84" style="fill:#fafafa"></rect><rect x="86.95" y="213.11" width="6.84" height="6.84" style="fill:#fafafa"></rect><rect x="96.5" y="213.11" width="6.84" height="6.84" style="fill:#fafafa"></rect><rect x="106.05" y="213.11" width="6.84" height="6.84" style="fill:#fafafa"></rect><rect x="86.95" y="233.74" width="6.84" height="6.84" style="fill:#fafafa"></rect><rect x="106.05" y="233.74" width="6.84" height="6.84" style="fill:#fafafa"></rect><rect x="96.5" y="244.06" width="6.84" height="6.84" style="fill:#fafafa"></rect><rect x="86.95" y="254.37" width="6.84" height="6.84" style="fill:#fafafa"></rect><rect x="106.05" y="254.37" width="6.84" height="6.84" style="fill:#fafafa"></rect><rect x="115.6" y="254.37" width="6.84" height="6.84" style="fill:#fafafa"></rect><rect x="96.5" y="264.69" width="6.84" height="6.84" style="fill:#fafafa"></rect><rect x="86.95" y="275" width="6.84" height="6.84" style="fill:#fafafa"></rect><rect x="96.5" y="275" width="6.84" height="6.84" style="fill:#fafafa"></rect><rect x="115.6" y="275" width="6.84" height="6.84" style="fill:#fafafa"></rect><rect x="86.95" y="285.11" width="6.84" height="6.84" transform="translate(4.15 -1.27) rotate(0.82)" style="fill:#fafafa"></rect><rect x="106.05" y="285.39" width="6.84" height="6.84" transform="translate(4.15 -1.54) rotate(0.82)" style="fill:#fafafa"></rect><rect x="115.6" y="285.53" width="6.84" height="6.84" transform="translate(4.16 -1.68) rotate(0.82)" style="fill:#fafafa"></rect><rect x="96.5" y="295.64" width="6.84" height="6.84" style="fill:#fafafa"></rect><rect x="115.6" y="305.01" width="6.84" height="6.84" transform="translate(238.05 616.86) rotate(180)" style="fill:#fafafa"></rect><rect x="96.5" y="305.01" width="6.84" height="6.84" transform="translate(199.84 616.86) rotate(180)" style="fill:#fafafa"></rect><rect x="86.95" y="305.01" width="6.84" height="6.84" transform="translate(180.73 616.86) rotate(180)" style="fill:#fafafa"></rect><rect x="106.05" y="315.33" width="6.84" height="6.84" transform="translate(218.94 637.49) rotate(180)" style="fill:#fafafa"></rect><rect x="115.6" y="325.64" width="6.84" height="6.84" transform="translate(238.05 658.12) rotate(180)" style="fill:#fafafa"></rect><rect x="106.05" y="325.64" width="6.84" height="6.84" transform="translate(218.94 658.12) rotate(180)" style="fill:#fafafa"></rect><rect x="86.95" y="325.64" width="6.84" height="6.84" transform="translate(180.73 658.12) rotate(180)" style="fill:#fafafa"></rect><rect x="115.6" y="335.75" width="6.84" height="6.84" transform="translate(242.9 676.6) rotate(179.18)" style="fill:#fafafa"></rect><rect x="96.5" y="336.02" width="6.84" height="6.84" transform="translate(204.7 677.42) rotate(179.18)" style="fill:#fafafa"></rect><rect x="86.95" y="336.16" width="6.84" height="6.84" transform="translate(185.59 677.83) rotate(179.18)" style="fill:#fafafa"></rect><rect x="106.05" y="346.27" width="6.84" height="6.84" transform="translate(218.94 699.38) rotate(180)" style="fill:#fafafa"></rect><path d="M50.92,375.53H88.86a3.85,3.85,0,0,1,3.85,3.85v3.82a0,0,0,0,1,0,0H47.08a0,0,0,0,1,0,0v-3.82A3.85,3.85,0,0,1,50.92,375.53Z" style="fill:#ebebeb"></path><path d="M95.95,375.53h37.94a3.85,3.85,0,0,1,3.85,3.85v3.82a0,0,0,0,1,0,0H92.1a0,0,0,0,1,0,0v-3.82A3.85,3.85,0,0,1,95.95,375.53Z" style="fill:#f5f5f5"></path><path d="M141,375.53h37.94a3.85,3.85,0,0,1,3.85,3.85v3.82a0,0,0,0,1,0,0H137.13a0,0,0,0,1,0,0v-3.82A3.85,3.85,0,0,1,141,375.53Z" style="fill:#ebebeb"></path><path d="M186,375.53h37.94a3.85,3.85,0,0,1,3.85,3.85v3.82a0,0,0,0,1,0,0H182.16a0,0,0,0,1,0,0v-3.82A3.85,3.85,0,0,1,186,375.53Z" style="fill:#f5f5f5"></path><path d="M231,375.53H269a3.85,3.85,0,0,1,3.85,3.85v3.82a0,0,0,0,1,0,0H227.18a0,0,0,0,1,0,0v-3.82A3.85,3.85,0,0,1,231,375.53Z" style="fill:#ebebeb"></path><path d="M276.06,375.53H314a3.85,3.85,0,0,1,3.85,3.85v3.82a0,0,0,0,1,0,0H272.21a0,0,0,0,1,0,0v-3.82A3.85,3.85,0,0,1,276.06,375.53Z" style="fill:#f5f5f5"></path><path d="M321.08,375.53H359a3.85,3.85,0,0,1,3.85,3.85v3.82a0,0,0,0,1,0,0H317.24a0,0,0,0,1,0,0v-3.82A3.85,3.85,0,0,1,321.08,375.53Z" style="fill:#ebebeb"></path><path d="M366.11,375.53h37.94a3.85,3.85,0,0,1,3.85,3.85v3.82a0,0,0,0,1,0,0H362.26a0,0,0,0,1,0,0v-3.82A3.85,3.85,0,0,1,366.11,375.53Z" style="fill:#f5f5f5"></path><path d="M411.14,375.53h37.94a3.85,3.85,0,0,1,3.85,3.85v3.82a0,0,0,0,1,0,0H407.29a0,0,0,0,1,0,0v-3.82A3.85,3.85,0,0,1,411.14,375.53Z" style="fill:#ebebeb"></path><path d="M217.54,136.32a5.39,5.39,0,0,0-3.46,1.19,8.75,8.75,0,0,0,0-3.27A11.72,11.72,0,0,0,203,124.87a8.21,8.21,0,0,0-4.2,1.1A11.69,11.69,0,0,0,189,119.9c-5.18,0-8.61,4.19-7.68,9.36a10.4,10.4,0,0,0,.32,1.25,10.26,10.26,0,0,0-2.52-.34c-5.18,0-8.61,4.2-7.68,9.37a11.71,11.71,0,0,0,11.06,9.36h37.33a5.12,5.12,0,0,0,5.16-6.29A7.89,7.89,0,0,0,217.54,136.32Z" style="fill:#f0f0f0"></path><path d="M150,106.75a8.09,8.09,0,0,0-5.26,1.81,13.58,13.58,0,0,0,0-5c-1.42-7.86-8.94-14.23-16.79-14.23A12.47,12.47,0,0,0,121.62,91c-3-5.39-8.87-9.23-15-9.23C98.8,81.8,93.58,88.17,95,96a13.77,13.77,0,0,0,.48,1.89,15.49,15.49,0,0,0-3.83-.51c-7.86,0-13.08,6.37-11.66,14.22s8.94,14.22,16.79,14.22h56.7c5.27,0,8.78-4.27,7.83-9.55A12,12,0,0,0,150,106.75Z" style="fill:#f5f5f5"></path><path d="M380.78,120.31a8.09,8.09,0,0,0-5.26,1.81,13.64,13.64,0,0,0,0-5c-1.42-7.85-8.94-14.22-16.79-14.22a12.47,12.47,0,0,0-6.38,1.67c-3-5.39-8.87-9.23-15-9.23-7.85,0-13.07,6.37-11.65,14.22a13.55,13.55,0,0,0,.48,1.9,15,15,0,0,0-3.83-.52c-7.86,0-13.08,6.37-11.66,14.23s8.93,14.22,16.79,14.22h56.7c5.27,0,8.78-4.28,7.82-9.55A11.94,11.94,0,0,0,380.78,120.31Z" style="fill:#f5f5f5"></path><path d="M440.73,105.32a4.09,4.09,0,0,0-2.67.92,6.72,6.72,0,0,0,0-2.53,9.06,9.06,0,0,0-8.55-7.25,6.37,6.37,0,0,0-3.25.85,9,9,0,0,0-7.62-4.7,5.88,5.88,0,0,0-5.94,7.24,8.08,8.08,0,0,0,.24,1,7.57,7.57,0,0,0-1.95-.26,5.89,5.89,0,0,0-5.94,7.24,9.06,9.06,0,0,0,8.56,7.25h28.88a4,4,0,0,0,4-4.87A6.1,6.1,0,0,0,440.73,105.32Z" style="fill:#f0f0f0"></path><path d="M309.48,88a5.5,5.5,0,0,0-3.55,1.22,8.76,8.76,0,0,0,0-3.35,12,12,0,0,0-11.31-9.59,8.34,8.34,0,0,0-4.3,1.13,12,12,0,0,0-10.09-6.22c-5.3,0-8.81,4.29-7.86,9.58a9.24,9.24,0,0,0,.33,1.28,10.3,10.3,0,0,0-2.59-.35c-5.29,0-8.81,4.3-7.85,9.59a12,12,0,0,0,11.31,9.59H311.8a5.23,5.23,0,0,0,5.28-6.44A8.07,8.07,0,0,0,309.48,88Z" style="fill:#f0f0f0"></path></g><g id="freepik--Shadow--inject-101"><ellipse id="freepik--path--inject-101" cx="250" cy="412.39" rx="193.89" ry="11.32" style="fill:#f5f5f5"></ellipse></g><g id="freepik--Sign--inject-101"><path d="M445.74,375.72h5V155.12a35.21,35.21,0,0,0-35.21-35.22h-72.4a2.5,2.5,0,0,0-2.5,2.5h0a2.5,2.5,0,0,0,2.5,2.5h72.4a30.22,30.22,0,0,1,30.21,30.22Z" style="fill:#407BFF"></path><g style="opacity:0.5"><path d="M445.74,375.72h5V155.12a35.21,35.21,0,0,0-35.21-35.22h-72.4a2.5,2.5,0,0,0-2.5,2.5h0a2.5,2.5,0,0,0,2.5,2.5h72.4a30.22,30.22,0,0,1,30.21,30.22Z" style="fill:#fff"></path></g><rect x="338.18" y="128.4" width="90.04" height="46" rx="6.88" transform="translate(766.4 302.8) rotate(180)" style="fill:#407BFF"></rect><rect x="338.18" y="128.4" width="90.04" height="46" rx="6.88" transform="translate(766.4 302.8) rotate(180)" style="fill:#fff;opacity:0.5"></rect><path d="M342.18,167.52V135.28a2.88,2.88,0,0,1,2.87-2.88h76.3a2.88,2.88,0,0,1,2.87,2.88v32.24a2.88,2.88,0,0,1-2.87,2.88h-76.3A2.88,2.88,0,0,1,342.18,167.52Zm2.87-33.12a.87.87,0,0,0-.87.88v32.24a.87.87,0,0,0,.87.88h76.3a.87.87,0,0,0,.87-.88V135.28a.87.87,0,0,0-.87-.88Z" style="fill:#407BFF"></path><g style="opacity:0.9"><path d="M401.91,162.7h3v-4.79a6,6,0,0,1,1.76-4.25l3.48-3.48L408,148.07l-3.48,3.48a8.92,8.92,0,0,0-2.63,6.36Z" style="fill:#fff"></path><polygon points="408.87 157.29 411.29 147.19 401.19 149.6 408.87 157.29" style="fill:#fff"></polygon><path d="M361.5,162.7h3v-4.79a8.92,8.92,0,0,0-2.63-6.36l-3.48-3.48-2.11,2.11,3.47,3.48a5.93,5.93,0,0,1,1.76,4.25Z" style="fill:#fff"></path><polygon points="357.53 157.29 355.11 147.19 365.21 149.6 357.53 157.29" style="fill:#fff"></polygon></g><g style="opacity:0.9"><polygon points="388.63 155.06 383.2 146.21 377.76 155.06 388.63 155.06" style="fill:#fff"></polygon><rect x="381.7" y="150.63" width="2.99" height="11.96" style="fill:#fff"></rect></g></g><g id="freepik--Character--inject-101"><path d="M430.54,384.9H116.74c-2,0-24.65-.23-26.58-.66l-33.37-5.76a12.21,12.21,0,0,1-9.51-11.91V261.7a21.26,21.26,0,0,1,21.27-21.26H422.6A16.6,16.6,0,0,1,439.19,257V376.25A8.65,8.65,0,0,1,430.54,384.9Z" style="fill:#407BFF"></path><g style="opacity:0.5"><rect x="425.75" y="339.85" width="13.5" height="15.92" style="fill:#fff"></rect></g><path d="M59.59,294.74V257.05A3.06,3.06,0,0,0,56.54,254h-7.8a21.17,21.17,0,0,0-1.46,7.7v36.1h9.26A3.06,3.06,0,0,0,59.59,294.74Z" style="fill:#407BFF"></path><path d="M59.59,294.74V257.05A3.06,3.06,0,0,0,56.54,254h-7.8a21.17,21.17,0,0,0-1.46,7.7v36.1h9.26A3.06,3.06,0,0,0,59.59,294.74Z" style="fill:#fff;opacity:0.8"></path><path d="M425.44,357.77h13.23a3.94,3.94,0,0,1,3.94,3.94v17.77a5.41,5.41,0,0,1-5.41,5.41H425.44a3.47,3.47,0,0,1-3.47-3.47V361.24A3.47,3.47,0,0,1,425.44,357.77Z" style="fill:#407BFF"></path><path d="M425.44,357.77h13.23a3.94,3.94,0,0,1,3.94,3.94v17.77a5.41,5.41,0,0,1-5.41,5.41H425.44a3.47,3.47,0,0,1-3.47-3.47V361.24A3.47,3.47,0,0,1,425.44,357.77Z" style="fill:#fff;opacity:0.30000000000000004"></path><path d="M181.34,383a33.91,33.91,0,0,0-67.82,0c0,.63.07,1.26.1,1.89h67.62C181.27,384.27,181.34,383.64,181.34,383Z" style="fill:#407BFF"></path><path d="M361.93,383a33.91,33.91,0,1,0-67.81,0c0,.63.06,1.26.09,1.89h67.62C361.87,384.27,361.93,383.64,361.93,383Z" style="fill:#407BFF"></path><g style="opacity:0.30000000000000004"><path d="M181.15,383a33.91,33.91,0,1,0-67.81,0c0,.63.06,1.26.1,1.89h67.62C181.09,384.27,181.15,383.64,181.15,383Z"></path><path d="M361.93,383c0,.63-.06,1.26-.1,1.89H294.21c0-.63-.09-1.26-.09-1.89a33.91,33.91,0,1,1,67.81,0Z"></path></g><path d="M51.77,314.66H57a2.63,2.63,0,0,1,2.63,2.63v42.94A2.63,2.63,0,0,1,57,362.86H51.77a1.69,1.69,0,0,1-1.69-1.69V316.35A1.69,1.69,0,0,1,51.77,314.66Z" style="fill:#407BFF"></path><path d="M51.77,314.66H57a2.63,2.63,0,0,1,2.63,2.63v42.94A2.63,2.63,0,0,1,57,362.86H51.77a1.69,1.69,0,0,1-1.69-1.69V316.35A1.69,1.69,0,0,1,51.77,314.66Z" style="fill:#fff;opacity:0.7000000000000001"></path><rect x="50.08" y="331.33" width="9.51" height="14.86" style="fill:#407BFF"></rect><rect x="50.08" y="331.33" width="9.51" height="14.86" style="fill:#fff;opacity:0.5"></rect><path d="M176.81,240.44l-18.61-9.5a17,17,0,0,0-7.71-1.85h-62a16.94,16.94,0,0,0-16,11.35Z" style="fill:#407BFF"></path><path d="M176.81,240.44l-18.61-9.5a17,17,0,0,0-7.71-1.85h-62a16.94,16.94,0,0,0-16,11.35Z" style="fill:#fff;opacity:0.30000000000000004"></path><path d="M454.69,273.6h0a1.53,1.53,0,0,1-1.53-1.53v-4.3c0-6.89.34-12.48-6.56-12.48H423.69a1.54,1.54,0,0,1-1.53-1.53h0a1.54,1.54,0,0,1,1.53-1.53H446.6c8.58,0,9.62,7,9.62,15.54v4.3A1.53,1.53,0,0,1,454.69,273.6Z" style="fill:#263238"></path><g style="opacity:0.5"><path d="M454.69,273.6h0a1.53,1.53,0,0,1-1.53-1.53v-4.3c0-6.89.34-12.48-6.56-12.48H423.69a1.54,1.54,0,0,1-1.53-1.53h0a1.54,1.54,0,0,1,1.53-1.53H446.6c8.58,0,9.62,7,9.62,15.54v4.3A1.53,1.53,0,0,1,454.69,273.6Z" style="fill:#fff"></path></g><path d="M448.83,265.71h2a2.82,2.82,0,0,1,2.82,2.82v22.88a2.82,2.82,0,0,1-2.82,2.82h-2a1,1,0,0,1-1-1V266.72A1,1,0,0,1,448.83,265.71Z" style="fill:#263238"></path><path d="M448.83,265.71h2a2.82,2.82,0,0,1,2.82,2.82v22.88a2.82,2.82,0,0,1-2.82,2.82h-2a1,1,0,0,1-1-1V266.72A1,1,0,0,1,448.83,265.71Z" style="fill:#fff;opacity:0.2"></path><rect x="254.98" y="254" width="104.07" height="54.41" rx="1.72" style="fill:#fff;opacity:0.5"></rect><rect x="258.52" y="257.54" width="97" height="47.33" style="fill:#fff;opacity:0.7000000000000001"></rect><g style="opacity:0.5"><polygon points="275.82 304.87 285.88 257.54 270.45 257.54 260.39 304.87 275.82 304.87" style="fill:#fff"></polygon><polygon points="296.5 257.54 292.85 257.54 282.79 304.87 286.44 304.87 296.5 257.54" style="fill:#fff"></polygon><polygon points="343.67 257.54 328.23 257.54 318.17 304.87 333.61 304.87 343.67 257.54" style="fill:#fff"></polygon><polygon points="354.29 257.54 350.64 257.54 340.58 304.87 344.23 304.87 354.29 257.54" style="fill:#fff"></polygon></g><path d="M432.35,338.18h7V257a16.93,16.93,0,0,0-.29-3h-6.68a3,3,0,0,0-3.05,3.05v78.08A3,3,0,0,0,432.35,338.18Z" style="fill:#fff;opacity:0.5"></path><path d="M432.35,338.18h7v-65.3L429.3,320v15.1A3,3,0,0,0,432.35,338.18Z" style="fill:#fff;opacity:0.5"></path><path d="M59.59,269.88V257.05A3.06,3.06,0,0,0,56.54,254h-1.1l-8.16,38.41v5.39h6.37Z" style="fill:#fff;opacity:0.5"></path><circle cx="147.79" cy="380.76" r="26.01" transform="translate(-134.46 85.54) rotate(-22.5)" style="fill:#263238"></circle><circle cx="147.79" cy="380.77" r="16.77" style="fill:#fff;opacity:0.5"></circle><path d="M162.9,380.76a14.66,14.66,0,0,1-.15,2.11,15.06,15.06,0,0,1-2.82,6.91,14.75,14.75,0,0,1-3,3.05,15,15,0,0,1-6.86,2.93,14.06,14.06,0,0,1-2.35.19,15.31,15.31,0,0,1-2-.14,15,15,0,0,1-6.91-2.78,14.66,14.66,0,0,1-3.19-3.15,15.25,15.25,0,0,1-3-9.12,15.32,15.32,0,0,1,.17-2.26,15.19,15.19,0,0,1,30.21,2.26Z" style="opacity:0.2"></path><circle cx="147.68" cy="381.03" r="7.6" transform="translate(-257.08 437.22) rotate(-76.72)" style="fill:#fff;opacity:0.2"></circle><circle cx="147.6" cy="380.92" r="3.71" style="fill:#263238"></circle><path d="M149.23,367.6a1.64,1.64,0,1,1-1.64-1.64A1.63,1.63,0,0,1,149.23,367.6Z" style="fill:#263238"></path><path d="M149.23,393.91a1.64,1.64,0,1,1-1.64-1.64A1.63,1.63,0,0,1,149.23,393.91Z" style="fill:#263238"></path><circle cx="138.05" cy="370.92" r="1.68" style="fill:#263238"></circle><circle cx="157.14" cy="390.01" r="1.68" style="fill:#263238"></circle><path d="M134.09,378.79a1.68,1.68,0,1,1-1.68,1.68A1.69,1.69,0,0,1,134.09,378.79Z" style="fill:#263238"></path><path d="M161.09,378.79a1.68,1.68,0,1,1-1.68,1.68A1.68,1.68,0,0,1,161.09,378.79Z" style="fill:#263238"></path><circle cx="138.05" cy="390.01" r="1.68" style="fill:#263238"></circle><circle cx="157.14" cy="370.92" r="1.68" style="fill:#263238"></circle><circle cx="328.02" cy="380.76" r="26.01" transform="translate(-173.16 343.47) rotate(-45)" style="fill:#263238"></circle><rect x="72.48" y="254" width="116.46" height="43.79" rx="1.72" style="fill:#fff;opacity:0.5"></rect><rect x="76.02" y="257.54" width="109.38" height="36.72" style="fill:#fff;opacity:0.7000000000000001"></rect><g style="opacity:0.5"><polygon points="116.47 257.54 112.83 257.54 105.02 294.26 108.67 294.26 116.47 257.54" style="fill:#fff"></polygon><polygon points="98.05 294.26 105.86 257.54 90.42 257.54 82.62 294.26 98.05 294.26" style="fill:#fff"></polygon><polygon points="160.85 257.54 157.21 257.54 149.4 294.26 153.05 294.26 160.85 257.54" style="fill:#fff"></polygon><polygon points="150.23 257.54 134.8 257.54 127 294.26 142.43 294.26 150.23 257.54" style="fill:#fff"></polygon></g><g style="opacity:0.2"><rect x="364.71" y="253.87" width="57.17" height="126.42"></rect></g><polygon points="397.69 368.7 421.88 368.7 421.88 380.29 397.69 376.13 397.69 368.7" style="opacity:0.2"></polygon><path d="M364.75,284h0l0,70.72,23.85,5,12.05-16a4.68,4.68,0,0,0,1.77-3.67v-3.36a4.68,4.68,0,0,0-4.54-4.68l-19.17-.62a8,8,0,0,1-7.75-7.66l-1.49-35.2A4.69,4.69,0,0,0,364.75,284Z" style="opacity:0.2"></path><path d="M421.59,310.11l-14,4.57a3.45,3.45,0,0,0-2.37,3.28h0a3.45,3.45,0,0,0,1.86,3.06l14.47,7.44Z" style="opacity:0.2"></path><rect x="364.86" y="359.74" width="23.71" height="7.32" style="fill:#407BFF"></rect><rect x="364.86" y="359.74" width="23.71" height="7.32" style="fill:#fff;opacity:0.7000000000000001"></rect><rect x="364.86" y="367.06" width="32.83" height="9.07" style="fill:#fff;opacity:0.9"></rect><polygon points="364.72 354.74 388.57 359.74 364.86 359.74 364.72 354.74" style="fill:#fff;opacity:0.9"></polygon><polygon points="397.69 376.13 421.88 380.29 364.71 380.29 364.86 376.13 397.69 376.13" style="fill:#fff;opacity:0.7000000000000001"></polygon><polygon points="407.88 307.68 409.91 314.12 412.9 313.14 410.88 306.75 407.88 307.68" style="fill:#fff;opacity:0.4"></polygon><path d="M420.81,305l-22.06,7a1.58,1.58,0,0,1-2-1h0a1.58,1.58,0,0,1,1-2l22.05-7a1.56,1.56,0,0,1,2,1h0A1.59,1.59,0,0,1,420.81,305Z" style="fill:#263238"></path><path d="M95.07,368.33H86.16a2.78,2.78,0,0,1-2.79-2.78h0a2.79,2.79,0,0,1,2.79-2.78h8.91a2.78,2.78,0,0,1,2.78,2.78h0A2.77,2.77,0,0,1,95.07,368.33Z" style="fill:#fff;opacity:0.7000000000000001"></path><path d="M355.82,333.47H346.9a2.79,2.79,0,0,1-2.78-2.78h0a2.79,2.79,0,0,1,2.78-2.79h8.92a2.79,2.79,0,0,1,2.78,2.79h0A2.79,2.79,0,0,1,355.82,333.47Z" style="fill:#fff;opacity:0.7000000000000001"></path><path d="M75.34,357h0A1.34,1.34,0,0,1,74,355.68v-20a1.34,1.34,0,0,1,1.33-1.34h0a1.34,1.34,0,0,1,1.34,1.34v20A1.34,1.34,0,0,1,75.34,357Z" style="opacity:0.2"></path><path d="M80.68,357h0a1.34,1.34,0,0,1-1.34-1.33v-20a1.34,1.34,0,0,1,1.34-1.34h0A1.34,1.34,0,0,1,82,335.7v20A1.34,1.34,0,0,1,80.68,357Z" style="opacity:0.2"></path><path d="M86,357h0a1.33,1.33,0,0,1-1.33-1.33v-20A1.33,1.33,0,0,1,86,334.36h0a1.33,1.33,0,0,1,1.33,1.34v20A1.33,1.33,0,0,1,86,357Z" style="opacity:0.2"></path><path d="M91.34,357h0A1.34,1.34,0,0,1,90,355.68v-20a1.34,1.34,0,0,1,1.33-1.34h0a1.34,1.34,0,0,1,1.34,1.34v20A1.34,1.34,0,0,1,91.34,357Z" style="opacity:0.2"></path><path d="M96.68,357h0a1.34,1.34,0,0,1-1.34-1.33v-20a1.34,1.34,0,0,1,1.34-1.34h0A1.34,1.34,0,0,1,98,335.7v20A1.34,1.34,0,0,1,96.68,357Z" style="opacity:0.2"></path><path d="M201.25,254.44H243a4.08,4.08,0,0,1,4.08,4.08V380.45a0,0,0,0,1,0,0H197.17a0,0,0,0,1,0,0V258.52A4.08,4.08,0,0,1,201.25,254.44Z" style="fill:#407BFF"></path><path d="M364.72,356.74l-15.22,0a33.91,33.91,0,0,0-43,.07l-73.81.13a12.26,12.26,0,0,1-8.69-3.6L195.88,325.3a12.33,12.33,0,0,0-8.74-3.62H47.28V305.76H193.77a12.27,12.27,0,0,1,8.68,3.59l28.08,28.08a12.35,12.35,0,0,0,8.74,3.62l125.39.63Z" style="fill:#fff;opacity:0.5"></path><path d="M201.25,254.44H243a4.08,4.08,0,0,1,4.08,4.08V380.45a0,0,0,0,1,0,0H197.17a0,0,0,0,1,0,0V258.52A4.08,4.08,0,0,1,201.25,254.44Z" style="opacity:0.1"></path><rect x="200.37" y="257.36" width="43.93" height="43.93" rx="3.74" style="fill:#fff;opacity:0.5"></rect><rect x="203.6" y="260.68" width="37.62" height="37.62" style="fill:#fff;opacity:0.7000000000000001"></rect><g style="opacity:0.5"><polygon points="227.03 260.81 219.06 298.3 203.62 298.3 211.6 260.81 227.03 260.81" style="fill:#fff"></polygon><polygon points="237.65 260.81 229.68 298.3 226.03 298.3 234 260.81 237.65 260.81" style="fill:#fff"></polygon></g><circle cx="328.1" cy="380.77" r="16.77" style="fill:#fff;opacity:0.5"></circle><path d="M343.21,380.76a14.66,14.66,0,0,1-.15,2.11,15.06,15.06,0,0,1-2.82,6.91,14.75,14.75,0,0,1-3,3.05,15,15,0,0,1-6.86,2.93A14.06,14.06,0,0,1,328,396a15.31,15.31,0,0,1-2-.14,15,15,0,0,1-6.91-2.78,14.66,14.66,0,0,1-3.19-3.15,15.25,15.25,0,0,1-3.05-9.12,15.32,15.32,0,0,1,.17-2.26,15.19,15.19,0,0,1,30.21,2.26Z" style="fill:#fff;opacity:0.30000000000000004"></path><circle cx="328" cy="380.9" r="11.89" transform="translate(-118.07 612.61) rotate(-76.72)" style="fill:#fff;opacity:0.4"></circle><circle cx="328" cy="381.03" r="7.6" transform="translate(-118.2 612.71) rotate(-76.72)" style="opacity:0.2"></circle><circle cx="327.91" cy="380.92" r="3.71" style="fill:#263238"></circle><path d="M330.36,365.75a2.36,2.36,0,0,1-2.17,1.4,2.4,2.4,0,0,1-2.2-1.44,15.06,15.06,0,0,1,4.37,0Z" style="fill:#263238"></path><path d="M330.37,395.76A14.06,14.06,0,0,1,328,396a15.31,15.31,0,0,1-2-.14,2.4,2.4,0,0,1,4.39-.05Z" style="fill:#263238"></path><path d="M318.57,371.13a2.38,2.38,0,0,1-2.68.49,15.07,15.07,0,0,1,3.19-3.14A2.39,2.39,0,0,1,318.57,371.13Z" style="fill:#263238"></path><path d="M340.24,389.78a14.75,14.75,0,0,1-3,3.05,2.4,2.4,0,0,1,3-3.05Z" style="fill:#263238"></path><path d="M314.59,380.75A2.39,2.39,0,0,1,313,383a15,15,0,0,1-.17-2.24,15.32,15.32,0,0,1,.17-2.26A2.39,2.39,0,0,1,314.59,380.75Z" style="fill:#263238"></path><path d="M343.21,380.76a14.66,14.66,0,0,1-.15,2.11,2.4,2.4,0,0,1,0-4.24A15,15,0,0,1,343.21,380.76Z" style="fill:#263238"></path><path d="M319.07,393a14.66,14.66,0,0,1-3.19-3.15,2.4,2.4,0,0,1,3.19,3.15Z" style="fill:#263238"></path><path d="M340.23,371.72a2.4,2.4,0,0,1-3-3A15.16,15.16,0,0,1,340.23,371.72Z" style="fill:#263238"></path><polygon points="409.84 355.94 411.62 366.24 414.79 366.05 415.43 355.13 409.84 355.94" style="fill:#b97964"></polygon><path d="M415.05,364.47l-3.72.2a.34.34,0,0,0-.33.28l-.59,3.53a.58.58,0,0,0,.47.66H411c1.54-.11,2.91-.27,4.83-.36,2.27-.12,1.71.18,4.37.08,1.61-.06,1.81-1.91,1.12-2a7.54,7.54,0,0,1-5.32-2.18A1.39,1.39,0,0,0,415.05,364.47Z" style="fill:#263238"></path><path d="M384.33,319.48s21.79,1.12,27.54,5.5,3.44,35.27,3.44,35.27l-4.87,0c-5.18-23.52-3.33-29.53-3.33-29.53s-19-.19-26.64-.38c-5.8-.15-10.61,3.25-11.87-13.46l15.24-1.1Z" style="fill:#263238"></path><path d="M384.33,319.48s21.79,1.12,27.54,5.5,3.44,35.27,3.44,35.27l-4.87,0c-5.18-23.52-3.33-29.53-3.33-29.53s-19-.19-26.64-.38c-5.8-.15-10.61,3.25-11.87-13.46l15.24-1.1Z" style="opacity:0.1"></path><polygon points="400.81 356.7 401.09 367.15 404.38 365.2 406.46 356.7 400.81 356.7" style="fill:#b97964"></polygon><path d="M404.37,365l-3.73.08a.34.34,0,0,0-.33.28l-.7,3.5a.57.57,0,0,0,.44.68h.12c1.55-.06,2.92-.17,4.84-.21,2.27-.05,1.7.24,4.37.22,1.61,0,1.87-1.85,1.18-1.92a7.52,7.52,0,0,1-5.25-2.35A1.39,1.39,0,0,0,404.37,365Z" style="fill:#263238"></path><path d="M405.57,361.09h-5c-1.14-23.34.56-28.53.56-28.53s-20.74-.55-27.44-1.87a4.94,4.94,0,0,1-3-2,9.18,9.18,0,0,1-1.16-2.25c-1.71-4.64-1-11.31-1-11.31l7.34-.31,3-.13,5.48-.23.83,4s19.9,1.68,24.1,7.56S405.57,361.09,405.57,361.09Z" style="fill:#263238"></path><polygon points="399.99 359.37 400.32 361.74 406.01 361.74 406.62 359.37 399.99 359.37" style="fill:#263238"></polygon><polygon points="399.99 359.37 400.32 361.74 406.01 361.74 406.62 359.37 399.99 359.37" style="fill:#fff;opacity:0.2"></polygon><polygon points="409.88 359.27 410.34 361.62 416.02 361.29 416.49 358.89 409.88 359.27" style="fill:#263238"></polygon><polygon points="409.88 359.27 410.34 361.62 416.02 361.29 416.49 358.89 409.88 359.27" style="fill:#fff;opacity:0.2"></polygon><path d="M376.88,283.27s-1.19,3.14.15,5.26l-6.43-1s2-4,1.3-6.42C371.9,281.13,376.12,281.86,376.88,283.27Z" style="fill:#b97964"></path><path d="M371.84,280.72c1.3.33,4.55,1.64,5,2.55a9.27,9.27,0,0,0-.35,1.31C372.93,284.69,372.26,281.62,371.84,280.72Z" style="opacity:0.1"></path><path d="M390.18,284.58l-.86-2.87,1.36-2.75,2.62,1.44-.55,2.25.32,1.55a1.49,1.49,0,0,1-.25,1.16l-.77,1.09-.22,3.06-2.51-.51Z" style="fill:#b97964"></path><path d="M386.36,301.19a36.64,36.64,0,0,1-6.56-4.74c-1.88-1.81-4.09-4.18-4.15-6.53s2.36-3.37,3.73-1.85a83.17,83.17,0,0,0,8,7.59c.68-3.09,1.53-7.42,2.21-10.51a4.28,4.28,0,0,0,2.81,1.29,37.58,37.58,0,0,1-1.19,12.13c-.09.36-.2.71-.32,1.06A3,3,0,0,1,386.36,301.19Z" style="fill:#407BFF"></path><path d="M386.36,301.19a36.64,36.64,0,0,1-6.56-4.74c-1.88-1.81-4.09-4.18-4.15-6.53s2.36-3.37,3.73-1.85a83.17,83.17,0,0,0,8,7.59c.68-3.09,1.53-7.42,2.21-10.51a4.28,4.28,0,0,0,2.81,1.29,37.58,37.58,0,0,1-1.19,12.13c-.09.36-.2.71-.32,1.06A3,3,0,0,1,386.36,301.19Z" style="fill:#fff;opacity:0.4"></path><path d="M371.73,285.8c-2.72,0-7.23,1.66-5.41,15.48S367.86,318,367.86,318s3.95.49,17.77-.41a108.35,108.35,0,0,1-2-15.69C383.31,293.62,382,285.86,371.73,285.8Z" style="fill:#407BFF"></path><path d="M371.73,285.8c-2.72,0-7.23,1.66-5.41,15.48S367.86,318,367.86,318s3.95.49,17.77-.41a108.35,108.35,0,0,1-2-15.69C383.31,293.62,382,285.86,371.73,285.8Z" style="fill:#fff;opacity:0.5"></path><path d="M369,286.56a3,3,0,0,1,1.51-1.68c.83-.31,4.58.16,6.4.79.82.29,2.1,2,2.69,2.72,0,0-2.65-1.69-2.11,1.11l-2.83-1.85C373.29,287.06,371.14,285.84,369,286.56Z" style="fill:#407BFF"></path><path d="M382.71,293a62.91,62.91,0,0,1-2.18,16.19,48.38,48.38,0,0,1-1.82,5.49,57,57,0,0,1-8.11,14,9.18,9.18,0,0,1-1.16-2.25,55.17,55.17,0,0,0,6.3-11.62A68.49,68.49,0,0,0,380.53,289S382.71,290.75,382.71,293Z" style="fill:#263238"></path><path d="M393.72,305.66l5.8.89h3.87a6.17,6.17,0,0,1,3.45,2.37.69.69,0,0,1-.37,1.07l-2.64.71a1.86,1.86,0,0,1-1.35-.16l-3.12-1.71-6.61.46Z" style="fill:#b97964"></path><path d="M396.36,309.74s-12.48.49-19.08-4.64c-3.2-2.48-7.14-6.64-8.68-10-1.64-3.55-.89-6.47.58-7.29,2.93-1.63,7.18,7.43,11.3,11.43S397,305.67,397,305.67Z" style="fill:#407BFF"></path><path d="M396.36,309.74s-12.48.49-19.08-4.64c-3.2-2.48-7.14-6.64-8.68-10-1.64-3.55-.89-6.47.58-7.29,2.93-1.63,7.18,7.43,11.3,11.43S397,305.67,397,305.67Z" style="fill:#fff;opacity:0.4"></path><path d="M377,285.8l.43,3.7s-.32-1.52.55-1.6a2.31,2.31,0,0,1,1.56.49S377.71,285.88,377,285.8Z" style="opacity:0.1"></path><path d="M377.14,276.37c-1.94-2.16-2.34-5.5-1.94-6.09s4.5-.58,4.93-.15c2.15,2.08-.55,5.12-.55,5.12l.53,1.43Z" style="fill:#263238"></path><path d="M370.38,275c.42,3.48.49,5.54,2.37,7.23a4.66,4.66,0,0,0,7.66-2.85c.56-3.2-.23-8.35-3.73-9.53a4.78,4.78,0,0,0-6.08,3A4.92,4.92,0,0,0,370.38,275Z" style="fill:#b97964"></path><path d="M369.76,276.48c-1.72-2.33-.7-6.47-.22-7,1.28-1.37,2.45-.73,3.94.67,2.2,2-1.17,5.47-1.17,5.47l.38,1.49Z" style="fill:#263238"></path><path d="M376,275.72c0,.29.1.53.29.54s.35-.2.38-.48-.11-.53-.3-.54S376.05,275.44,376,275.72Z" style="fill:#263238"></path><path d="M379.23,276c0,.29.11.53.29.55s.36-.2.38-.49-.1-.53-.29-.54S379.26,275.72,379.23,276Z" style="fill:#263238"></path><path d="M377.79,278.54l.12.09a1,1,0,0,0-1-.16c-.33.1-.62.31-.94.44a1.07,1.07,0,0,1-1,0,2.42,2.42,0,0,0,1.11,1.42A1.47,1.47,0,0,0,378,280a1.62,1.62,0,0,0,1.48.83,1.53,1.53,0,0,0,1.27-1.06.91.91,0,0,1-1-.23,8.67,8.67,0,0,0-.69-.79C378.75,278.48,378,278.29,377.79,278.54Z" style="fill:#263238"></path><path d="M378,276a10.38,10.38,0,0,0,1.15,2.54,1.67,1.67,0,0,1-1.38.14Z" style="fill:#a24e3f"></path><path d="M375,274.29l-.08,0a.17.17,0,0,1,0-.24,1.65,1.65,0,0,1,1.41-.57.16.16,0,0,1,.14.19.16.16,0,0,1-.19.14h0a1.34,1.34,0,0,0-1.11.46A.17.17,0,0,1,375,274.29Z" style="fill:#263238"></path><path d="M380.6,274.82a.16.16,0,0,1-.13-.11,1.32,1.32,0,0,0-.86-.83.17.17,0,0,1,.07-.33,1.68,1.68,0,0,1,1.12,1.05.16.16,0,0,1-.09.21h0A.12.12,0,0,1,380.6,274.82Z" style="fill:#263238"></path><path d="M368.77,275.07s-1-3.73-.46-5.51,2.67-3.29,5.13-3.88,5.89-.19,7.66,5.65l-6.27-.43-3.12,1.47Z" style="fill:#407BFF"></path><path d="M368.77,275.07s-1-3.73-.46-5.51,2.67-3.29,5.13-3.88,5.89-.19,7.66,5.65l-6.27-.43-3.12,1.47Z" style="fill:#fff;opacity:0.7000000000000001"></path><path d="M381.08,271.26c-1.78-5.77-5.19-6.16-7.64-5.58l0,0c-3.13,1.78-1.21,6.44-1.21,6.44h0l2.64-1.24,4.06.27Z" style="fill:#fff;opacity:0.4"></path><path d="M368.92,275.61s5.14-6.4,12.13-3.66c0,0,4.55-1.15.94-2.44-5.28-1.88-9.63,2.17-9.63,2.17S367.7,274.35,368.92,275.61Z" style="fill:#407BFF"></path><path d="M368.92,275.61s5.14-6.4,12.13-3.66c0,0,4.55-1.15.94-2.44-5.28-1.88-9.63,2.17-9.63,2.17S367.7,274.35,368.92,275.61Z" style="fill:#fff;opacity:0.7000000000000001"></path><path d="M368.67,277.33A3.31,3.31,0,0,0,370.6,279c1.12.35,1.72-.64,1.44-1.71s-1.14-2.31-2.27-2.19A1.48,1.48,0,0,0,368.67,277.33Z" style="fill:#b97964"></path></g></svg>